<svg version="1.2" xmlns="http://www.w3.org/2000/svg" viewBox="0 0 618 183" width="618" height="183">
	<title>New Project</title>
	<style>
		.s0 { fill: hsl(180, 37%, 10%) } 
	</style>
	<path id="Shape 1" fill-rule="evenodd" class="s0" d="m4 58c0 0-0.2-36.4 0-46 11.8 0.5 26.2-0.7 25.8 10.3 0.1 16.9 0.2 24.7 0.2 24.7 0 0 0.8 9.9-13 11-6.9-0.2-13 0-13 0zm12.1-6.9c1.1 0 3.9-0.2 3.9-3.5 0-1.8 0-12.5 0-13.5 0-0.6 0-6.4 0-9.4 0-5.3-1.5-5.5-4-5.7-1-0.1-3 0-3 0v32c0 0 1.1 0.1 3.1 0.1z"/>
	<path id="Shape 2" class="s0" d="m36 12h10c0 0-0.2 31.6 0 35-0.1 6.5 7.3 6.5 7 0 0.1-11.9 0-35 0-35h10c0 0-0.1 37.8 0 34 0.1-3.8 2 13-14 13-12 0-12.9-10.6-13-14 0.2-5 0-33 0-33z"/>
	<path id="Shape 3" class="s0" d="m69 58l1-46h11l4 25h1l5-25h11v46l-7-0.1-1.2-27-4.8 27.1-6.5-0.1-5.6-30.4 0.1 30.5"/>
	<path id="Shape 3 copy" class="s0" d="m109 58l0.1-45.8 11.9-0.2 4 25h1l5-25h11v46l-7-0.1-1.2-27-4.8 27.1-6.5-0.1-5.6-30.4 0.1 30.5"/>
	<path id="Shape 4" class="s0" d="m155 12l3 14h2l3-14h9l-9 26v20h-9v-20l-9-26z"/>
	<path id="Shape 5" class="s0" d="m176 35h15v6h-15z"/>
	<path id="Shape 6" class="s0" d="m25 156l0.2-71h-22.2v-20h68v20h-22v71z"/>
	<path id="Shape 7" class="s0" d="m85 65h24v91h-24z"/>
	<path id="Shape 8" class="s0" d="m197 71c-4.4 11.8-6.3 16-7 18-3.8-1.4-37.8-18.3-40 21-2 35 31 30.9 43 23 0.1 7.5 0 20 0 20 0 0-65.8 26.3-67-42-0.6-37.4 32.6-58.9 71-40z"/>
	<path id="Shape 9" fill-rule="evenodd" class="s0" d="m236 38v25h-3c-2.1 0.1-2 3.1 0 3.1 1.7 0 3-0.1 3-0.1v38h1l26-39h27l-29 41 28 50h-27l-19-35-7 5v29c0 0-1.9 0-3 0-2 0.1-2 2.9 0 3 1.9 0.1 3 0 3 0v23c0 0-5.8 0-7 0 0-5.3-9-6.7-10 0-3.2 0-7 0-7 0v-23c0 0 1 0 2 0 2.1 0 2-2.9 0-3-1.2 0-2 0-2 0v-89c0 0 0.8 0 2 0 1.9 0 2.1-3 0-3-1.6 0-2 0-2 0v-25c0 0 5.4 0 7 0-0.2 6.5 9.9 8 10 0 1.3 0.1 7 0 7 0zm-17 28c2.2 0.1 6.2 0.1 9 0 2-0.1 2-3 0-3-0.8 0-8 0-9 0-2.1 0-2 3 0 3zm0 92c1.9 0 7 0 9 0 2 0 2-3.1 0-3-1.4 0.1-7.5 0-9 0-2.1 0.1-1.9 3 0 3z"/>
	<path id="Shape 10" class="s0" d="m353 65v20h-30v14h28v19h-28v18h30v20h-53v-91z"/>
	<path id="Shape 11" class="s0" d="m363 65h68v20h-22v71h-24v-71h-22z"/>
	<path id="Shape 12" class="s0" d="m504 71l-8 18c0 0-8.5-4.9-21-5-9.5-0.1-10 3.6-10 5 0 1.4-0.6 4.4 8 9 8.6 4.6 31.6 10.9 31 31-0.6 6.2-1.6 26.6-35 29-8.1 0-17.9-1-28-6 0-4.9 0-21 0-21 0 0 10.7 6.5 26 7 2.6 0.1 5.8 0.7 8.5-0.8 5.3-2.4 7.6-9.1-3.5-14.2-8.1-3.5-30.8-10.3-31-32 0-5.4 2.4-25.4 34-27 13.2 0.2 25.6 5.6 29 7z"/>
	<path id="Shape 13" class="s0" d="m515 143v9h-9v-9z"/>
	<path id="Shape 14" class="s0" d="m534 131c0 0 0-4 0-6 0.1-3-4.9-3-5 0-0.1 2.3 0 16 0 19 0 3 5.1 3 5 0-0.1-3 0-3 0-3v-3h9c0 0 0 5.5 0 6.1-0.6 3.5-1.3 7.9-11.9 7.9-9.1 0-11-5.9-11.1-8-0.1-2.1 0-19 0-19 0 0 0.6-7.9 11-8 10.4-0.1 12 5.7 12 7 0 1.3 0 7 0 7z"/>
	<path id="Shape 15" fill-rule="evenodd" class="s0" d="m559 117c7.8 0 12 3.8 12 7 0 3.2 0 19.9 0 21-0.1 1.6-2.5 7-11 7-9.6 0-11.2-3.9-12-7 0-2.3 0-19.6 0-21 0-1.4 2.7-7 11-7zm-2 8c0 2 0.1 16 0 19 0 3 5 3 5 0 0-2 0-18.1 0-19 0-3-5-3-5 0z"/>
	<path id="Shape 16" class="s0" d="m586 117v3h1c0 0 8.2-7.5 13 1 0.4-0.1 1 0 1 0 0 0 6.7-8.3 14-1 0.5 1.2 1 3 1 3v29h-9v-26c0 0-2.2-6-6-1 0 2 0 27 0 27h-9v-27c0 0-0.7-3.6-5-1 0 2.6 0 28 0 28h-10v-35z"/>
</svg>